<?xml version="1.0" encoding="UTF-8"?>
<svg id="Layer_1" xmlns="http://www.w3.org/2000/svg" xmlns:xlink="http://www.w3.org/1999/xlink" version="1.1" viewBox="0 0 500 500">
  <!-- Generator: Adobe Illustrator 29.0.0, SVG Export Plug-In . SVG Version: 2.1.0 Build 186)  -->
  <defs>
    <style>
      .st0 {
        fill: none;
      }

      .st1 {
        fill: #017634;
      }

      .st2 {
        fill: url(#linear-gradient2);
      }

      .st3 {
        fill: url(#linear-gradient1);
      }

      .st4 {
        fill: url(#linear-gradient9);
      }

      .st5 {
        fill: url(#linear-gradient3);
      }

      .st6 {
        fill: url(#linear-gradient6);
      }

      .st7 {
        fill: url(#linear-gradient8);
      }

      .st8 {
        fill: url(#linear-gradient7);
      }

      .st9 {
        fill: url(#linear-gradient5);
      }

      .st10 {
        fill: url(#linear-gradient4);
      }

      .st11 {
        fill: url(#linear-gradient11);
      }

      .st12 {
        fill: url(#linear-gradient10);
      }

      .st13 {
        fill: url(#linear-gradient);
      }

      .st14 {
        fill: #2f4999;
      }
    </style>
    <linearGradient id="linear-gradient" x1="121.44" y1="414.62" x2="394.14" y2="414.62" gradientUnits="userSpaceOnUse">
      <stop offset=".31" stop-color="#2f4999"/>
      <stop offset=".55" stop-color="#2f4999"/>
      <stop offset=".85" stop-color="#017634"/>
    </linearGradient>
    <linearGradient id="linear-gradient1" x1="101.91" y1="414.33" x2="420.23" y2="416.87" gradientUnits="userSpaceOnUse">
      <stop offset="0" stop-color="#2f4999"/>
      <stop offset="1" stop-color="#017634"/>
    </linearGradient>
    <linearGradient id="linear-gradient2" x1="101.92" y1="414.26" x2="420.23" y2="416.8" xlink:href="#linear-gradient1"/>
    <linearGradient id="linear-gradient3" x1="101.92" y1="413.96" x2="420.24" y2="416.5" xlink:href="#linear-gradient1"/>
    <linearGradient id="linear-gradient4" x1="101.92" y1="413.82" x2="420.24" y2="416.37" xlink:href="#linear-gradient1"/>
    <linearGradient id="linear-gradient5" x1="101.92" y1="413.61" x2="420.24" y2="416.15" xlink:href="#linear-gradient1"/>
    <linearGradient id="linear-gradient6" x1="101.92" y1="413.49" x2="420.24" y2="416.03" xlink:href="#linear-gradient1"/>
    <linearGradient id="linear-gradient7" x1="101.92" y1="413.33" x2="420.24" y2="415.88" xlink:href="#linear-gradient1"/>
    <linearGradient id="linear-gradient8" x1="101.93" y1="412.97" x2="420.25" y2="415.51" xlink:href="#linear-gradient1"/>
    <linearGradient id="linear-gradient9" x1="101.93" y1="412.84" x2="420.25" y2="415.39" xlink:href="#linear-gradient1"/>
    <linearGradient id="linear-gradient10" x1="101.93" y1="412.65" x2="420.25" y2="415.2" xlink:href="#linear-gradient1"/>
    <linearGradient id="linear-gradient11" x1="101.93" y1="412.39" x2="420.25" y2="414.94" xlink:href="#linear-gradient1"/>
  </defs>
  <path class="st14" d="M254.81,254.26l-13.86-31.89-.62-1.44-27.17-62.64h-.99l-41.65,95.96h17.93l7.53-18.07,31.85.11,4.32,10.54,41.61,101.22H123.03V88.56h60.49l-8.38-19.52h-71.63v298.54h199.8l-48.49-113.32ZM202.39,220.89l9.28-22.44,8.9,22.44h-18.18Z"/>
  <polygon class="st1" points="396.5 69.04 396.5 367.59 324.66 367.59 316.28 348.06 376.97 348.06 376.97 88.56 226.25 88.56 278.58 213.99 279.13 212.52 298.4 161.94 319.97 161.94 288.41 234.27 277.84 258.52 277.7 258.18 264.46 227.85 236.33 161.94 230.31 147.79 196.71 69.04 396.5 69.04"/>
  <g>
    <path class="st0" d="M207.17,405.25h-4.27v9.12h4.23c1.61,0,2.79-.47,3.53-1.42.74-.95,1.11-1.96,1.11-3.06s-.31-2.14-.94-3.14c-.63-1-1.85-1.5-3.66-1.5Z"/>
    <path class="st0" d="M250.98,410.86c.6-.67.9-1.5.9-2.48s-.34-1.79-1.03-2.32c-.69-.53-1.63-.8-2.83-.8h-3.2v6.61h3.61c1.1,0,1.94-.34,2.55-1.01Z"/>
    <path class="st0" d="M248.23,417.61h-3.41v6.57h3.82c1.4,0,2.53-.28,3.39-.84.86-.56,1.29-1.4,1.29-2.53,0-2.14-1.7-3.2-5.09-3.2Z"/>
    <path class="st0" d="M118.09,406.04c-1.33-.55-2.58-.82-3.76-.82h-4.85v18.76h3.53c3.09,0,5.54-.79,7.35-2.38,1.81-1.59,2.71-3.87,2.71-6.86,0-2.41-.5-4.33-1.5-5.75-1-1.42-2.16-2.41-3.49-2.96Z"/>
    <path class="st0" d="M352.58,406.22c-1.41-.86-2.98-1.29-4.7-1.29s-3.29.43-4.7,1.29-2.53,2.03-3.35,3.51c-.82,1.48-1.23,3.12-1.23,4.93s.42,3.37,1.25,4.84c.83,1.48,1.97,2.65,3.41,3.51,1.44.86,3.03,1.29,4.78,1.29s3.24-.43,4.64-1.29c1.4-.86,2.49-2.03,3.29-3.49.79-1.46,1.19-3.09,1.19-4.87s-.41-3.45-1.23-4.93c-.82-1.48-1.94-2.65-3.35-3.51Z"/>
    <path class="st13" d="M122.09,401.75c-2.49-1.49-5.67-2.24-9.53-2.24h-9.03v30.22h10.51c2.76,0,5.3-.59,7.62-1.79,2.31-1.19,4.15-2.89,5.52-5.11,1.37-2.22,2.05-4.78,2.05-7.68,0-2.71-.57-5.25-1.7-7.62-1.14-2.37-2.95-4.3-5.44-5.79ZM120.37,421.6c-1.81,1.59-4.26,2.38-7.35,2.38h-3.53v-18.76h4.85c1.18,0,2.43.27,3.76.82,1.33.55,2.49,1.53,3.49,2.96,1,1.42,1.5,3.34,1.5,5.75,0,2.98-.9,5.27-2.71,6.86Z"/>
    <rect class="st3" x="135.19" y="399.51" width="5.95" height="30.22"/>
    <path class="st2" d="M155.16,405.42c.72-.52,1.74-.78,3.06-.78,1.94,0,4.23.72,6.86,2.18l2.26-4.56c-1.42-.93-2.89-1.65-4.39-2.16s-3.38-.76-5.63-.76c-2.85.14-5.13,1-6.84,2.59-1.71,1.59-2.57,3.68-2.57,6.28,0,1.78.42,3.26,1.25,4.43s1.83,2.08,2.98,2.71c1.15.63,2.59,1.29,4.31,1.97,2.93,1.15,4.39,2.51,4.39,4.07,0,1.21-.47,2.07-1.4,2.61-.93.53-2.03.8-3.29.8-1.07,0-2.27-.25-3.61-.74-1.34-.49-2.53-1.12-3.57-1.89l-2.63,4.64c1.53,1.1,3.19,1.91,4.97,2.44,1.78.53,3.57.8,5.38.8,2.16,0,4.02-.39,5.58-1.17,1.56-.78,2.74-1.83,3.55-3.16.81-1.33,1.21-2.77,1.21-4.33,0-1.81-.34-3.3-1.01-4.48-.67-1.18-1.51-2.1-2.53-2.77-1.01-.67-2.23-1.27-3.65-1.79-1.75-.66-3.15-1.35-4.21-2.07-1.05-.72-1.58-1.57-1.58-2.53,0-1.04.36-1.82,1.09-2.34Z"/>
    <polygon class="st5" points="170.83 405.25 177.89 405.25 177.89 429.73 183.84 429.73 183.84 405.25 191.2 405.25 191.2 399.51 170.83 399.51 170.83 405.25"/>
    <path class="st10" d="M216.75,414.93c.78-1.63,1.17-3.37,1.17-5.24,0-3.15-1.03-5.63-3.1-7.45-2.07-1.82-4.98-2.73-8.73-2.73h-9.16v30.22h5.95v-9.61h3.98l6.37,9.61h6.94l-7.02-10.96c1.61-.93,2.81-2.21,3.59-3.84ZM210.66,412.95c-.74.94-1.92,1.42-3.53,1.42h-4.23v-9.12h4.27c1.81,0,3.02.5,3.66,1.5.63,1,.94,2.05.94,3.14s-.37,2.11-1.11,3.06Z"/>
    <rect class="st9" x="225.11" y="399.51" width="5.95" height="30.22"/>
    <path class="st6" d="M254.43,413.8c1.15-.68,2.04-1.59,2.67-2.73.63-1.13.95-2.46.95-3.96,0-2.46-.92-4.34-2.75-5.65-1.84-1.3-4.35-1.95-7.56-1.95h-8.87v30.22h10.06c3.01,0,5.52-.72,7.53-2.15,2.01-1.44,3.02-3.69,3.02-6.75,0-1.56-.44-2.94-1.33-4.13-.89-1.19-2.13-2.16-3.71-2.9ZM244.82,405.25h3.2c1.2,0,2.15.27,2.83.8.68.53,1.03,1.31,1.03,2.32s-.3,1.81-.9,2.48c-.6.67-1.45,1.01-2.55,1.01h-3.61v-6.61ZM252.02,423.34c-.86.56-1.99.84-3.39.84h-3.82v-6.57h3.41c3.39,0,5.09,1.07,5.09,3.2,0,1.12-.43,1.96-1.29,2.53Z"/>
    <path class="st8" d="M283.41,418.56c0,.96-.28,1.87-.84,2.75-.56.88-1.33,1.59-2.32,2.13-.99.55-2.07.82-3.24.82-1.1,0-2.12-.27-3.08-.82-.96-.55-1.72-1.26-2.3-2.13-.57-.88-.86-1.79-.86-2.75v-19.05h-5.95v19.18c0,2.16.54,4.11,1.62,5.85,1.08,1.74,2.55,3.09,4.41,4.06,1.86.97,3.91,1.46,6.16,1.46s4.3-.49,6.18-1.46c1.88-.97,3.36-2.33,4.46-4.06,1.09-1.74,1.64-3.69,1.64-5.85v-19.18h-5.87v19.05Z"/>
    <polygon class="st7" points="294.42 405.25 301.48 405.25 301.48 429.73 307.43 429.73 307.43 405.25 314.78 405.25 314.78 399.51 294.42 399.51 294.42 405.25"/>
    <rect class="st4" x="320.53" y="399.51" width="5.95" height="30.22"/>
    <path class="st12" d="M355.54,401.29c-2.37-1.41-4.94-2.12-7.7-2.12s-5.33.71-7.7,2.12c-2.37,1.41-4.24,3.3-5.63,5.69-1.38,2.38-2.07,4.94-2.07,7.68s.69,5.37,2.07,7.72c1.38,2.35,3.25,4.22,5.6,5.61,2.35,1.38,4.93,2.07,7.72,2.07s5.33-.69,7.7-2.07c2.37-1.38,4.26-3.25,5.67-5.61,1.41-2.35,2.12-4.93,2.12-7.72s-.71-5.3-2.12-7.68c-1.41-2.38-3.3-4.28-5.67-5.69ZM355.97,419.52c-.79,1.46-1.89,2.63-3.29,3.49-1.4.86-2.94,1.29-4.64,1.29s-3.35-.43-4.78-1.29c-1.44-.86-2.57-2.03-3.41-3.51-.84-1.48-1.25-3.09-1.25-4.84s.41-3.45,1.23-4.93c.82-1.48,1.94-2.65,3.35-3.51s2.98-1.29,4.7-1.29,3.29.43,4.7,1.29c1.41.86,2.52,2.03,3.35,3.51.82,1.48,1.23,3.12,1.23,4.93s-.4,3.4-1.19,4.87Z"/>
    <polygon class="st11" points="390.5 399.51 390.62 417.7 369.52 398.32 369.27 398.32 369.27 429.73 375.31 429.73 375.18 411.87 396.33 430.96 396.49 430.96 396.49 399.51 390.5 399.51"/>
  </g>
</svg>