<?xml version="1.0" encoding="UTF-8"?>
<svg id="Layer_1" xmlns="http://www.w3.org/2000/svg" xmlns:xlink="http://www.w3.org/1999/xlink" version="1.1" viewBox="0 0 1920 1080">
  <!-- Generator: Adobe Illustrator 29.0.0, SVG Export Plug-In . SVG Version: 2.1.0 Build 186)  -->
  <defs>
    <style>
      .st0 {
        fill: none;
      }

      .st1 {
        fill: #017634;
      }

      .st2 {
        fill: #2f4999;
      }

      .st3 {
        fill: #f39631;
      }

      .st4 {
        fill: url(#New_Pattern);
      }
    </style>
    <pattern id="New_Pattern" data-name="New Pattern" x="0" y="0" width="484.99" height="840" patternTransform="translate(-5730.88 -6120) scale(.2)" patternUnits="userSpaceOnUse" viewBox="0 0 484.99 840">
      <g>
        <rect class="st0" x="0" width="484.99" height="840"/>
        <g>
          <polygon class="st2" points="484.99 840 484.99 1120.01 242.5 980 242.5 700 484.99 840"/>
          <polygon class="st1" points="278.99 958.93 278.99 763.2 448.5 861.07 448.5 1056.8 278.99 958.93"/>
          <polygon class="st3" points="727.49 700 484.99 840 242.5 700 484.99 559.99 727.49 700"/>
          <polygon class="st1" points="315.49 700 484.99 602.13 654.49 700 484.99 797.86 315.49 700"/>
        </g>
        <g>
          <polygon class="st1" points="242.5 700 242.5 980 0 1120.01 0 840 242.5 700"/>
          <polygon class="st2" points="36.49 861.07 206 763.2 206 958.93 36.49 1056.8 36.49 861.07"/>
          <polygon class="st3" points="242.5 700 0 840 -242.5 700 0 559.99 242.5 700"/>
          <polygon class="st1" points="-169.51 700 0 602.13 169.5 700 0 797.86 -169.51 700"/>
        </g>
        <g>
          <polygon class="st1" points="484.99 280 484.99 560 242.5 700.01 242.5 420 484.99 280"/>
          <polygon class="st2" points="278.99 441.07 448.5 343.2 448.5 538.93 278.99 636.8 278.99 441.07"/>
          <polygon class="st2" points="242.5 420 242.5 700.01 0 560 0 280 242.5 420"/>
          <polygon class="st1" points="36.49 538.93 36.49 343.2 206.01 441.07 206.01 636.8 36.49 538.93"/>
          <polygon class="st3" points="484.99 280 242.5 420 0 280 242.5 139.99 484.99 280"/>
          <polygon class="st1" points="72.99 280 242.5 182.13 412 280 242.5 377.86 72.99 280"/>
        </g>
        <g>
          <polygon class="st2" points="484.99 0 484.99 280.01 242.5 140 242.5 -140 484.99 0"/>
          <polygon class="st1" points="278.99 118.93 278.99 -76.8 448.5 21.07 448.5 216.8 278.99 118.93"/>
        </g>
        <g>
          <polygon class="st1" points="242.5 -140 242.5 140 0 280.01 0 0 242.5 -140"/>
          <polygon class="st2" points="36.49 21.07 206 -76.8 206 118.93 36.49 216.8 36.49 21.07"/>
        </g>
      </g>
    </pattern>
  </defs>
  <rect class="st4" y="0" width="1920" height="1080"/>
</svg>